<svg viewBox="0 0 80 80" height="500" width="500" xmlns:xlink="http://www.w3.org/1999/xlink" xmlns="http://www.w3.org/2000/svg">
	<defs>
		<linearGradient gradientUnits="userSpaceOnUse" x1="32" y1="0" x2="32" y2="64" id="b" gradientTransform="matrix(.63256 .77451 -.88168 .72008 35.7 -6.4)">
			<stop offset="0" style="stop-color:#d3aa4a" />
			<stop offset=".3" style="stop-color:#e5c75a" />
			<stop offset=".4" style="stop-color:#c9a645" />
			<stop offset=".7" style="stop-color:#f8da89" />
			<stop offset=".8" style="stop-color:#cea42f" />
			<stop offset="1" style="stop-color:#69531c" />
		</linearGradient>
		<linearGradient xlink:href="#b" id="d" x1="37.1" y1="3.8" x2="75.7" y2="67.7" gradientUnits="userSpaceOnUse" />
	</defs>
  <path style="fill:url(#d)" d="M43 16.4V22q5 .5 8.5 2.7L48 31.5q-3-2.3-5.9-2.3-1.8 0-3 .9-1 .8-1 1.8t.9 1.8q.8.8 2.3 1.3l2.8 1q4.6 1.6 6.7 3.9 2 2.3 2 6 0 2.2-.5 4-.5 1.7-1.7 3-1.1 1.4-3 2.5-2 1-4.7 1.8V63h-4.3v-5.5q-1.4 0-3-.4-1.7-.3-3.3-.9-1.6-.6-3-1.4-1.3-.8-2.2-1.6l3.8-7q4.4 3.8 8.5 3.8 1.8 0 3-1 1.3-.9 1.3-2.4 0-2-3-3l-2.7-.8q-2.4-.8-4-1.7-1.7-.9-2.8-2-1-1.2-1.6-2.7Q29 35 29 33q0-2 .5-3.9.6-1.8 1.8-3.3 1.2-1.5 3-2.5t4.2-1.2v-5.7ZM39.3.4a40 40 0 0 0-38 29.9 40 40 0 0 0 15.3 41.9A40 40 0 0 0 62 73 40 40 0 0 0 79.2 34 40 40 0 0 0 39.4.3Zm0 6.7a33.1 33.1 0 0 1 33 27.4 33.1 33.1 0 0 1-19 35.5c-13.1 6-29.9 2.2-38.9-9a33 33 0 0 1 25-53.8Z" />
</svg>
